<svg version="1.1" id="Layer_1" xmlns="http://www.w3.org/2000/svg" xmlns:xlink="http://www.w3.org/1999/xlink" viewBox="0 0 512 512" xml:space="preserve" fill="#000000"><g id="SVGRepo_bgCarrier" stroke-width="0"></g><g id="SVGRepo_tracerCarrier" stroke-linecap="round" stroke-linejoin="round"></g><g id="SVGRepo_iconCarrier"> <polygon style="fill:#D4E4AC;" points="504,491.943 280,491.943 280,347.943 336,379.943 504,379.943 "></polygon> <circle style="fill:#FFFFFF;" cx="306.019" cy="205.918" r="64"></circle> <polygon style="fill:#E2804F;" points="393.294,326.981 369.207,284.757 382.822,276.991 390.705,290.811 465.758,100.419 486.153,183.921 512,183.921 512,199.594 473.847,199.594 462.242,152.079 "></polygon> <polygon style="fill:#F2BF7E;" points="286.916,241.842 257.171,189.788 270.78,182.012 289.084,214.044 320.837,174.351 351.284,223.827 337.937,232.04 319.163,201.535 "></polygon> <polygon style="fill:#E2804F;" points="81.487,315.434 27.025,199.594 0,199.594 0,183.921 36.975,183.921 78.513,272.266 159.475,12.22 202.442,132.016 225.223,101.417 240.106,130.373 226.166,137.539 222.777,130.947 197.558,164.823 160.525,61.574 "></polygon> <polyline style="fill:#F2BF7E;" points="187.23,302.085 68.437,420.879 91.064,443.506 209.858,324.712 "></polyline> <path style="fill:#D4E4AC;" d="M368.25,143.693c-34.367-34.367-90.085-34.367-124.452,0s-34.367,90.085,0,124.452 c34.367,34.366,90.085,34.366,124.452,0C402.616,233.778,402.616,178.059,368.25,143.693z M351.279,251.174 c-24.994,24.994-65.516,24.994-90.51,0c-24.994-24.994-24.994-65.515,0-90.51c24.994-24.995,65.516-24.994,90.51,0 C376.273,185.657,376.273,226.18,351.279,251.174z"></path> <path d="M306.024,277.756c-19.189,0-37.228-7.472-50.797-21.041c-28.008-28.011-28.008-73.584,0-101.594 c28.01-28.008,73.583-28.008,101.592,0c13.568,13.568,21.041,31.608,21.041,50.797s-7.472,37.229-21.041,50.797l0,0l0,0 C343.252,270.284,325.213,277.756,306.024,277.756z M306.024,149.782c-14.384,0-28.763,5.473-39.713,16.424 c-21.898,21.898-21.898,57.529,0,79.427c10.608,10.608,24.712,16.451,39.713,16.451s29.106-5.843,39.713-16.451l0,0 c21.898-21.898,21.898-57.529,0-79.427C334.791,155.257,320.405,149.782,306.024,149.782z"></path> <path d="M373.791,138.151c-18.101-18.101-42.168-28.069-67.767-28.069s-49.666,9.968-67.767,28.069 c-18.102,18.102-28.07,42.168-28.07,67.767c0,22.967,8.047,44.686,22.769,61.984l-11.669,11.669l11.082,11.083l11.669-11.669 c17.298,14.722,39.018,22.768,61.984,22.768c25.599,0,49.666-9.968,67.767-28.069C411.158,236.318,411.158,175.519,373.791,138.151z M362.709,262.602c-15.141,15.142-35.272,23.48-56.685,23.48s-41.543-8.337-56.685-23.48c-15.141-15.141-23.48-35.272-23.48-56.684 s8.338-41.543,23.48-56.684c15.141-15.142,35.272-23.48,56.685-23.48s41.543,8.337,56.685,23.48 C393.964,180.489,393.964,231.347,362.709,262.602z"></path> <rect x="78.542" y="398.494" transform="matrix(-0.7071 -0.7071 0.7071 -0.7071 -134.526 781.2632)" style="fill:#FFFFFF;" width="32" height="39.998"></rect> <rect x="191.53" y="288.592" transform="matrix(-0.7071 -0.7071 0.7071 -0.7071 158.3266 658.4364)" width="48" height="15.672"></rect> <path d="M226.713,330.484l-45.255-45.256l-11.082,11.083l5.772,5.771L57.354,420.879l33.709,33.71l118.793-118.793l5.773,5.772 L226.713,330.484z M79.52,420.879l17.201-17.201l11.544,11.545l-17.201,17.201L79.52,420.879z M119.348,404.138l-11.544-11.544 l79.427-79.427l11.544,11.544L119.348,404.138z"></path> <path d="M511.837,499.78H272.164V334.438l65.918,37.668h173.755V499.78z M287.837,484.106h208.327v-96.327H333.92l-46.083-26.332 V484.106z"></path> <rect x="312.424" y="408.576" style="fill:#FFFFFF;" width="87.771" height="15.673"></rect> <rect x="312.424" y="432.609" style="fill:#F2BF7E;" width="31.347" height="15.673"></rect> <rect x="360.49" y="432.609" width="71.053" height="15.673"></rect> <rect x="312.424" y="455.596" width="15.673" height="15.673"></rect> <rect x="343.771" y="455.596" style="fill:#FFFFFF;" width="16.718" height="15.673"></rect> <rect x="376.163" y="455.596" style="fill:#F2BF7E;" width="15.673" height="15.673"></rect> <rect x="407.51" y="455.596" style="fill:#FFFFFF;" width="16.718" height="15.673"></rect> <rect x="439.902" y="455.596" width="15.673" height="15.673"></rect> </g></svg>